<svg width="28" height="28" viewBox="0 0 28 28" fill="none" xmlns="http://www.w3.org/2000/svg">
<g id="icon / Facebook">
<g id="Group 62">
<path id="Vector" fill-rule="evenodd" clip-rule="evenodd" d="M27.4173 14.0002C27.4173 6.59091 21.4099 0.583496 14.0007 0.583496C6.5914 0.583496 0.583984 6.59091 0.583984 14.0002C0.583984 20.6962 5.48958 26.247 11.9045 27.2547V17.8793H8.497V14.0002H11.9045V11.0436C11.9045 7.68139 13.9082 5.82294 16.9723 5.82294C18.4401 5.82294 19.976 6.08519 19.976 6.08519V9.38705H18.2835C16.6176 9.38705 16.0968 10.421 16.0968 11.4832V14.0001H19.8174L19.2231 17.8792H16.0967V27.2545C22.5116 26.2488 27.4172 20.698 27.4172 14.0001L27.4173 14.0002Z" fill="#1977F3"/>
<path id="Vector_2" fill-rule="evenodd" clip-rule="evenodd" d="M19.2241 17.8795L19.8185 14.0004H16.0978V11.4835C16.0978 10.4232 16.6167 9.38735 18.2846 9.38735H19.977V6.08549C19.977 6.08549 18.4413 5.82324 16.9733 5.82324C13.9093 5.82324 11.9056 7.67984 11.9056 11.0439V14.0005H8.49805V17.8797H11.9056V27.255C12.5885 27.3624 13.2885 27.4171 14.0017 27.4171C14.7149 27.4171 15.4149 27.3605 16.0978 27.255V17.8797H19.2242L19.2241 17.8795Z" fill="#FEFEFE"/>
</g>
</g>
</svg>
