<svg width="29" height="28" viewBox="0 0 29 28" fill="none" xmlns="http://www.w3.org/2000/svg">
<rect width="29" height="28" fill="#535252"/>
<g id="Create an account">
<path d="M-707 -504C-707 -505.105 -706.105 -506 -705 -506H6424C6425.1 -506 6426 -505.105 6426 -504V2256C6426 2257.1 6425.1 2258 6424 2258H-705C-706.105 2258 -707 2257.1 -707 2256V-504Z" fill="#444444"/>
<path d="M-705 -505H6424V-507H-705V-505ZM6425 -504V2256H6427V-504H6425ZM6424 2257H-705V2259H6424V2257ZM-706 2256V-504H-708V2256H-706ZM-705 2257C-705.552 2257 -706 2256.55 -706 2256H-708C-708 2257.66 -706.657 2259 -705 2259V2257ZM6425 2256C6425 2256.55 6424.55 2257 6424 2257V2259C6425.66 2259 6427 2257.66 6427 2256H6425ZM6424 -505C6424.55 -505 6425 -504.552 6425 -504H6427C6427 -505.657 6425.66 -507 6424 -507V-505ZM-705 -507C-706.657 -507 -708 -505.657 -708 -504H-706C-706 -504.552 -705.552 -505 -705 -505V-507Z" fill="white" fill-opacity="0.1"/>
<g id="CA - Step - 01" clip-path="url(#clip0_0_1)">
<rect width="1512" height="900" transform="translate(-627 -387)" fill="white"/>
<g id="bg design">
<g id="Frame 112">
<g id="Frame 113">
<g id="Section">
<rect x="-229" y="-101" width="1024" height="577" rx="24" fill="#FCFCFC"/>
<rect x="-228.5" y="-100.5" width="1023" height="576" rx="23.5" stroke="black" stroke-opacity="0.1"/>
<g id="wrap ">
<g id="wrap _2">
<g id="Component 2">
<rect x="-172.5" y="3.5" width="219" height="59" rx="15.5" fill="white"/>
<rect x="-172.5" y="3.5" width="219" height="59" rx="15.5" stroke="#057A40"/>
<g id="wrap _3">
<path id="&#224;&#166;&#172;&#224;&#167;&#128;&#224;&#166;&#176; &#224;&#166;&#182;&#224;&#166;&#185;&#224;&#167;&#128;&#224;&#166;&#166;&#224;&#166;&#166;&#224;&#167;&#135;&#224;&#166;&#176; &#224;&#166;&#164;&#224;&#166;&#165;&#224;&#167;&#141;&#224;&#166;&#175;" d="M-110.68 27.56V29.22H-112.74V40H-114.6C-115.027 39.2267 -115.593 38.52 -116.3 37.88C-116.993 37.24 -117.787 36.7067 -118.68 36.28C-119.573 35.84 -120.527 35.54 -121.54 35.38L-122.38 33.32C-121.113 32.5733 -119.787 31.8867 -118.4 31.26C-117 30.6333 -115.58 30.1133 -114.14 29.7L-114.58 30.48V29.22H-123.2V27.56H-110.68ZM-114.6 30.96L-114.18 31.48C-115.153 31.8 -116.153 32.18 -117.18 32.62C-118.193 33.06 -119.16 33.5467 -120.08 34.08C-119.413 34.2133 -118.707 34.46 -117.96 34.82C-117.213 35.1667 -116.513 35.6067 -115.86 36.14C-115.193 36.6733 -114.66 37.2933 -114.26 38L-114.5 38.06C-114.527 37.7533 -114.553 37.4467 -114.58 37.14C-114.593 36.8333 -114.6 36.4867 -114.6 36.1V30.96ZM-105.231 29.22H-107.271V40H-109.131V29.22H-111.171V27.56H-109.131C-109.211 26.7467 -109.444 26.06 -109.831 25.5C-110.218 24.94 -110.724 24.4933 -111.351 24.16C-111.978 23.8267 -112.698 23.5867 -113.511 23.44C-114.338 23.2933 -115.224 23.22 -116.171 23.22C-116.918 23.22 -117.558 23.26 -118.091 23.34C-118.624 23.42 -119.031 23.5333 -119.311 23.68C-119.591 23.8267 -119.731 24.0133 -119.731 24.24C-119.731 24.4533 -119.598 24.5933 -119.331 24.66C-119.064 24.7133 -118.731 24.74 -118.331 24.74H-116.391C-115.658 24.74 -115.078 24.8 -114.651 24.92C-114.224 25.04 -113.878 25.2333 -113.611 25.5C-113.358 25.7533 -113.171 26.0533 -113.051 26.4C-112.944 26.7467 -112.891 27.18 -112.891 27.7H-114.591C-114.604 27.4067 -114.644 27.1667 -114.711 26.98C-114.778 26.78 -114.878 26.6333 -115.011 26.54C-115.144 26.4467 -115.298 26.38 -115.471 26.34C-115.658 26.3 -115.911 26.28 -116.231 26.28H-118.051C-118.664 26.28 -119.184 26.24 -119.611 26.16C-120.038 26.08 -120.391 25.9733 -120.671 25.84C-121.004 25.6533 -121.238 25.4267 -121.371 25.16C-121.504 24.88 -121.571 24.5867 -121.571 24.28C-121.571 23.4933 -121.124 22.86 -120.231 22.38C-119.338 21.9 -117.978 21.66 -116.151 21.66C-113.378 21.66 -111.238 22.14 -109.731 23.1C-108.211 24.0467 -107.371 25.5333 -107.211 27.56H-105.231V29.22ZM-93.2042 27.56V29.22H-95.2642V40H-97.1242C-97.5509 39.2267 -98.1176 38.52 -98.8242 37.88C-99.5176 37.24 -100.311 36.7067 -101.204 36.28C-102.098 35.84 -103.051 35.54 -104.064 35.38L-104.904 33.32C-103.638 32.5733 -102.311 31.8867 -100.924 31.26C-99.5242 30.6333 -98.1042 30.1133 -96.6642 29.7L-97.1042 30.48V29.22H-105.724V27.56H-93.2042ZM-97.1242 30.96L-96.7042 31.48C-97.6776 31.8 -98.6776 32.18 -99.7042 32.62C-100.718 33.06 -101.684 33.5467 -102.604 34.08C-101.938 34.2133 -101.231 34.46 -100.484 34.82C-99.7376 35.1667 -99.0376 35.6067 -98.3842 36.14C-97.7176 36.6733 -97.1842 37.2933 -96.7842 38L-97.0242 38.06C-97.0509 37.7533 -97.0776 37.4467 -97.1042 37.14C-97.1176 36.8333 -97.1242 36.4867 -97.1242 36.1V30.96ZM-101.904 40.16C-102.264 40.16 -102.571 40.0467 -102.824 39.82C-103.064 39.58 -103.184 39.2733 -103.184 38.9C-103.184 38.5267 -103.064 38.22 -102.824 37.98C-102.571 37.7267 -102.264 37.6 -101.904 37.6C-101.544 37.6 -101.244 37.7267 -101.004 37.98C-100.751 38.22 -100.624 38.5267 -100.624 38.9C-100.624 39.2733 -100.751 39.58 -101.004 39.82C-101.244 40.0467 -101.544 40.16 -101.904 40.16ZM-74.44 27.56V29.22H-76.48V40H-78.36V29.78L-78.26 29.38C-78.3 29.14 -78.3267 28.9 -78.34 28.66C-78.3533 28.42 -78.36 28.16 -78.36 27.88V26.24H-76.96L-76.5 27.56H-74.44ZM-81.26 27.42C-80.7267 27.42 -80.2467 27.52 -79.82 27.72C-79.38 27.92 -78.9867 28.2067 -78.64 28.58C-78.2933 28.94 -78 29.36 -77.76 29.84L-77.82 32.12C-78.2333 31.1867 -78.72 30.4533 -79.28 29.92C-79.8267 29.3733 -80.44 29.1 -81.12 29.1C-81.6 29.1 -81.9933 29.2333 -82.3 29.5C-82.6067 29.7533 -82.76 30.14 -82.76 30.66C-82.76 31.18 -82.5533 31.5933 -82.14 31.9C-81.7133 32.2067 -81.04 32.38 -80.12 32.42L-80.3 34.22C-81.2067 34.1667 -81.9467 33.98 -82.52 33.66C-83.0933 33.34 -83.5133 32.92 -83.78 32.4C-84.0333 31.88 -84.16 31.2867 -84.16 30.62C-84.16 29.8867 -84.0267 29.2867 -83.76 28.82C-83.48 28.34 -83.12 27.9867 -82.68 27.76C-82.2267 27.5333 -81.7533 27.42 -81.26 27.42ZM-86.84 27.42C-86.2533 27.42 -85.7067 27.54 -85.2 27.78C-84.6933 28.0067 -84.2867 28.3733 -83.98 28.88C-83.66 29.3867 -83.5 30.0533 -83.5 30.88C-83.5 31.44 -83.6333 31.98 -83.9 32.5C-84.1533 33.0067 -84.5667 33.42 -85.14 33.74C-85.7 34.06 -86.4267 34.22 -87.32 34.22L-87.48 32.42C-86.8133 32.4067 -86.3 32.32 -85.94 32.16C-85.5667 31.9867 -85.3 31.7733 -85.14 31.52C-84.98 31.2533 -84.9 30.9867 -84.9 30.72C-84.9 30.2 -85.0667 29.8 -85.4 29.52C-85.7333 29.24 -86.2267 29.1 -86.88 29.1C-87.1333 29.1 -87.38 29.12 -87.62 29.16C-87.8467 29.1867 -88.1133 29.24 -88.42 29.32L-88.6 27.6C-88.2667 27.5333 -87.9667 27.4867 -87.7 27.46C-87.42 27.4333 -87.1333 27.42 -86.84 27.42ZM-69.7705 30.08C-68.6638 30.08 -67.7771 30.26 -67.1105 30.62C-66.4305 30.98 -65.9371 31.4333 -65.6305 31.98C-65.3238 32.5267 -65.1705 33.08 -65.1705 33.64C-65.1705 34.7333 -65.5438 35.5933 -66.2905 36.22C-67.0238 36.8333 -68.1105 37.2 -69.5505 37.32L-69.5305 36.92C-68.9171 37.0933 -68.2838 37.3333 -67.6305 37.64C-66.9638 37.9333 -66.2971 38.28 -65.6305 38.68C-64.9505 39.08 -64.2971 39.52 -63.6705 40L-64.7305 41.3C-65.5038 40.74 -66.2371 40.2467 -66.9305 39.82C-67.6105 39.38 -68.3038 39 -69.0105 38.68C-69.7038 38.3467 -70.4438 38.06 -71.2305 37.82C-72.0038 37.5667 -72.8638 37.34 -73.8105 37.14L-73.4705 35.56C-73.0038 35.68 -72.5505 35.7733 -72.1105 35.84C-71.6705 35.9067 -71.1705 35.94 -70.6105 35.94C-69.6905 35.94 -68.9771 35.8333 -68.4705 35.62C-67.9505 35.4067 -67.5905 35.1333 -67.3905 34.8C-67.1771 34.4533 -67.0705 34.0933 -67.0705 33.72C-67.0705 33.08 -67.3105 32.58 -67.7905 32.22C-68.2571 31.86 -68.8705 31.68 -69.6305 31.68C-70.0838 31.68 -70.4505 31.7267 -70.7305 31.82C-70.9971 31.9 -71.1905 32.0267 -71.3105 32.2C-71.4305 32.3733 -71.4905 32.5733 -71.4905 32.8C-71.4905 32.8933 -71.4771 33 -71.4505 33.12C-71.4238 33.2267 -71.3971 33.32 -71.3705 33.4L-73.1305 33.72C-73.1971 33.52 -73.2571 33.3067 -73.3105 33.08C-73.3505 32.84 -73.3705 32.6267 -73.3705 32.44C-73.3705 31.9467 -73.2238 31.5267 -72.9305 31.18C-72.6238 30.82 -72.2038 30.5467 -71.6705 30.36C-71.1238 30.1733 -70.4905 30.08 -69.7705 30.08ZM-71.4105 30.92C-71.4771 30.4933 -71.6771 30.12 -72.0105 29.8C-72.3438 29.4667 -72.8238 29.2333 -73.4505 29.1L-72.6705 28.2L-71.7505 28.44C-71.0038 28.7333 -70.4638 29.0667 -70.1305 29.44C-69.7838 29.8133 -69.5838 30.2867 -69.5305 30.86L-71.4105 30.92ZM-63.6705 27.56V29.22H-74.9305V27.56H-63.6705ZM-58.2311 29.22H-60.2711V40H-62.1311V29.22H-64.1711V27.56H-62.1311C-62.2111 26.7467 -62.4444 26.06 -62.8311 25.5C-63.2178 24.94 -63.7244 24.4933 -64.3511 24.16C-64.9778 23.8267 -65.6978 23.5867 -66.5111 23.44C-67.3378 23.2933 -68.2244 23.22 -69.1711 23.22C-69.9178 23.22 -70.5578 23.26 -71.0911 23.34C-71.6244 23.42 -72.0311 23.5333 -72.3111 23.68C-72.5911 23.8267 -72.7311 24.0133 -72.7311 24.24C-72.7311 24.4533 -72.5978 24.5933 -72.3311 24.66C-72.0644 24.7133 -71.7311 24.74 -71.3311 24.74H-69.3911C-68.6578 24.74 -68.0778 24.8 -67.6511 24.92C-67.2244 25.04 -66.8778 25.2333 -66.6111 25.5C-66.3578 25.7533 -66.1711 26.0533 -66.0511 26.4C-65.9444 26.7467 -65.8911 27.18 -65.8911 27.7H-67.5911C-67.6044 27.4067 -67.6444 27.1667 -67.7111 26.98C-67.7778 26.78 -67.8778 26.6333 -68.0111 26.54C-68.1444 26.4467 -68.2978 26.38 -68.4711 26.34C-68.6578 26.3 -68.9111 26.28 -69.2311 26.28H-71.0511C-71.6644 26.28 -72.1844 26.24 -72.6111 26.16C-73.0378 26.08 -73.3911 25.9733 -73.6711 25.84C-74.0044 25.6533 -74.2378 25.4267 -74.3711 25.16C-74.5044 24.88 -74.5711 24.5867 -74.5711 24.28C-74.5711 23.4933 -74.1244 22.86 -73.2311 22.38C-72.3378 21.9 -70.9778 21.66 -69.1511 21.66C-66.3778 21.66 -64.2378 22.14 -62.7311 23.1C-61.2111 24.0467 -60.3711 25.5333 -60.2111 27.56H-58.2311V29.22ZM-46.0442 27.56V29.22H-55.0642V35.04L-55.4242 34.64C-54.9042 34.0667 -54.3109 33.5267 -53.6442 33.02C-52.9775 32.5133 -52.2509 32.0467 -51.4642 31.62C-50.6642 31.18 -49.8109 30.7867 -48.9042 30.44L-47.4642 31.8C-47.6909 32.2267 -47.8775 32.6533 -48.0242 33.08C-48.1709 33.4933 -48.2775 33.9333 -48.3442 34.4C-48.4109 34.8533 -48.4442 35.36 -48.4442 35.92C-48.4442 36.5333 -48.3909 37.1467 -48.2842 37.76C-48.1775 38.3733 -48.0042 39.04 -47.7642 39.76L-49.5842 40.16C-49.8242 39.4133 -50.0109 38.68 -50.1442 37.96C-50.2775 37.24 -50.3442 36.48 -50.3442 35.68C-50.3442 35.1467 -50.3042 34.6467 -50.2242 34.18C-50.1309 33.7 -50.0109 33.2667 -49.8642 32.88C-49.7175 32.4933 -49.5709 32.16 -49.4242 31.88L-49.0042 32.28C-49.7775 32.6 -50.5309 32.9867 -51.2642 33.44C-51.9842 33.8933 -52.6909 34.4067 -53.3842 34.98C-54.0775 35.54 -54.7642 36.16 -55.4442 36.84L-56.9242 35.86V29.22H-58.7242V27.56H-46.0442ZM-38.8991 27.56V29.22H-39.5191C-39.9457 29.34 -40.3924 29.56 -40.8591 29.88C-41.3257 30.2 -41.7591 30.6 -42.1591 31.08C-42.5457 31.56 -42.8657 32.1067 -43.1191 32.72C-43.3724 33.3333 -43.4991 34.0133 -43.4991 34.76C-43.4991 35.6667 -43.3657 36.3867 -43.0991 36.92C-42.8191 37.4533 -42.4791 37.8333 -42.0791 38.06C-41.6657 38.2733 -41.2524 38.38 -40.8391 38.38C-40.5324 38.38 -40.2657 38.3533 -40.0391 38.3C-39.8124 38.2333 -39.5524 38.12 -39.2591 37.96L-38.4791 39.4C-38.8524 39.6667 -39.2457 39.8533 -39.6591 39.96C-40.0724 40.0533 -40.4991 40.1 -40.9391 40.1C-41.8191 40.1 -42.5991 39.8867 -43.2791 39.46C-43.9457 39.02 -44.4657 38.4067 -44.8391 37.62C-45.2124 36.82 -45.3991 35.88 -45.3991 34.8C-45.3991 33.76 -45.2057 32.8133 -44.8191 31.96C-44.4191 31.0933 -43.8857 30.36 -43.2191 29.76C-42.5391 29.1467 -41.7791 28.7 -40.9391 28.42L-42.2191 29.14C-42.4457 29.1667 -42.6991 29.1867 -42.9791 29.2C-43.2591 29.2133 -43.5857 29.22 -43.9591 29.22H-46.5391V27.56H-38.8991ZM-26.713 27.56V29.22H-35.733V35.04L-36.093 34.64C-35.573 34.0667 -34.9796 33.5267 -34.313 33.02C-33.6463 32.5133 -32.9196 32.0467 -32.133 31.62C-31.333 31.18 -30.4796 30.7867 -29.573 30.44L-28.133 31.8C-28.3596 32.2267 -28.5463 32.6533 -28.693 33.08C-28.8396 33.4933 -28.9463 33.9333 -29.013 34.4C-29.0796 34.8533 -29.113 35.36 -29.113 35.92C-29.113 36.5333 -29.0596 37.1467 -28.953 37.76C-28.8463 38.3733 -28.673 39.04 -28.433 39.76L-30.253 40.16C-30.493 39.4133 -30.6796 38.68 -30.813 37.96C-30.9463 37.24 -31.013 36.48 -31.013 35.68C-31.013 35.1467 -30.973 34.6467 -30.893 34.18C-30.7996 33.7 -30.6796 33.2667 -30.533 32.88C-30.3863 32.4933 -30.2396 32.16 -30.093 31.88L-29.673 32.28C-30.4463 32.6 -31.1996 32.9867 -31.933 33.44C-32.653 33.8933 -33.3596 34.4067 -34.053 34.98C-34.7463 35.54 -35.433 36.16 -36.113 36.84L-37.593 35.86V29.22H-39.393V27.56H-26.713ZM-14.6878 27.56V29.22H-16.7478V40H-18.6078C-19.0345 39.2267 -19.6011 38.52 -20.3078 37.88C-21.0011 37.24 -21.7945 36.7067 -22.6878 36.28C-23.5811 35.84 -24.5345 35.54 -25.5478 35.38L-26.3878 33.32C-25.1211 32.5733 -23.7945 31.8867 -22.4078 31.26C-21.0078 30.6333 -19.5878 30.1133 -18.1478 29.7L-18.5878 30.48V29.22H-27.2078V27.56H-14.6878ZM-18.6078 30.96L-18.1878 31.48C-19.1611 31.8 -20.1611 32.18 -21.1878 32.62C-22.2011 33.06 -23.1678 33.5467 -24.0878 34.08C-23.4211 34.2133 -22.7145 34.46 -21.9678 34.82C-21.2211 35.1667 -20.5211 35.6067 -19.8678 36.14C-19.2011 36.6733 -18.6678 37.2933 -18.2678 38L-18.5078 38.06C-18.5345 37.7533 -18.5611 37.4467 -18.5878 37.14C-18.6011 36.8333 -18.6078 36.4867 -18.6078 36.1V30.96ZM-23.3878 40.16C-23.7478 40.16 -24.0545 40.0467 -24.3078 39.82C-24.5478 39.58 -24.6678 39.2733 -24.6678 38.9C-24.6678 38.5267 -24.5478 38.22 -24.3078 37.98C-24.0545 37.7267 -23.7478 37.6 -23.3878 37.6C-23.0278 37.6 -22.7278 37.7267 -22.4878 37.98C-22.2345 38.22 -22.1078 38.5267 -22.1078 38.9C-22.1078 39.2733 -22.2345 39.58 -22.4878 39.82C-22.7278 40.0467 -23.0278 40.16 -23.3878 40.16ZM-1.60359 39.1C-2.75026 39.1 -3.81026 38.84 -4.78359 38.32C-5.75692 37.7867 -6.63026 36.9267 -7.40359 35.74C-8.17692 34.54 -8.83692 32.9267 -9.38359 30.9L-7.56359 30.42C-7.12359 32.0067 -6.63692 33.3133 -6.10359 34.34C-5.55692 35.3667 -4.93026 36.1267 -4.22359 36.62C-3.51692 37.1133 -2.68359 37.36 -1.72359 37.36C-1.13692 37.36 -0.636924 37.2933 -0.22359 37.16C0.189743 37.0133 0.523076 36.8133 0.77641 36.56C1.04308 36.2933 1.23641 35.9867 1.35641 35.64C1.47641 35.2933 1.53641 34.9133 1.53641 34.5C1.53641 33.98 1.43641 33.5133 1.23641 33.1C1.03641 32.6867 0.756409 32.3667 0.396409 32.14C0.0497431 31.9 -0.350257 31.78 -0.80359 31.78C-1.27026 31.78 -1.61692 31.8867 -1.84359 32.1C-2.07026 32.3 -2.18359 32.58 -2.18359 32.94C-2.18359 33.0733 -2.17026 33.2133 -2.14359 33.36C-2.11692 33.5067 -2.07026 33.6667 -2.00359 33.84L-3.84359 34.16C-3.93692 33.8933 -4.01026 33.64 -4.06359 33.4C-4.10359 33.1467 -4.12359 32.9 -4.12359 32.66C-4.12359 32.0867 -3.98359 31.62 -3.70359 31.26C-3.42359 30.8867 -3.04359 30.6067 -2.56359 30.42C-2.07026 30.2333 -1.53026 30.14 -0.94359 30.14C-0.0635904 30.14 0.69641 30.3333 1.33641 30.72C1.98974 31.0933 2.49641 31.62 2.85641 32.3C3.21641 32.9667 3.39641 33.7467 3.39641 34.64C3.39641 35.4533 3.21641 36.2 2.85641 36.88C2.50974 37.56 1.96308 38.1 1.21641 38.5C0.483076 38.9 -0.456924 39.1 -1.60359 39.1ZM4.59641 27.56V29.22H-10.0836V27.56H4.59641ZM17.8337 27.56V29.22H15.7737V40H13.9137C13.3671 39.2533 12.7471 38.58 12.0537 37.98C11.3604 37.3667 10.5737 36.8467 9.69375 36.42C8.81375 35.98 7.82041 35.6667 6.71375 35.48L6.19375 33.48L7.27375 34.1C8.44708 34.3 9.45375 34.5933 10.2937 34.98C11.1337 35.3533 11.8537 35.7867 12.4537 36.28C13.0537 36.76 13.5537 37.26 13.9537 37.78C13.9404 37.4733 13.9271 37.1667 13.9137 36.86C13.9137 36.54 13.9137 36.2067 13.9137 35.86V26.24H15.2937L15.7537 27.56H17.8337ZM8.61375 27.5C9.50708 27.5 10.2404 27.6533 10.8137 27.96C11.4004 28.2533 11.8337 28.6533 12.1137 29.16C12.4071 29.6533 12.5537 30.2 12.5537 30.8C12.5537 31.8533 12.1204 32.72 11.2537 33.4C10.4004 34.0667 9.22708 34.4867 7.73375 34.66L6.69375 34.44L6.19375 33.48C7.28708 33.36 8.15375 33.18 8.79375 32.94C9.44708 32.6867 9.91375 32.38 10.1937 32.02C10.4871 31.6467 10.6337 31.24 10.6337 30.8C10.6337 30.28 10.4604 29.8733 10.1137 29.58C9.76708 29.2733 9.26041 29.12 8.59375 29.12C7.99375 29.12 7.56041 29.2333 7.29375 29.46C7.04041 29.6867 6.91375 29.9333 6.91375 30.2C6.91375 30.3867 6.96708 30.56 7.07375 30.72C7.18041 30.8667 7.34708 31 7.57375 31.12L6.47375 32.48C6.22041 32.32 5.98041 32.1333 5.75375 31.92C5.54041 31.7067 5.36708 31.4533 5.23375 31.16C5.11375 30.8667 5.05375 30.5267 5.05375 30.14C5.05375 29.66 5.18708 29.22 5.45375 28.82C5.72041 28.42 6.12041 28.1 6.65375 27.86C7.18708 27.62 7.84041 27.5 8.61375 27.5ZM23.0136 27.56V29.22H21.5536L22.7536 28.78C22.2469 29.1933 21.8603 29.5667 21.5936 29.9C21.3403 30.2333 21.1669 30.5733 21.0736 30.92C20.9803 31.2533 20.9336 31.6533 20.9336 32.12C20.9336 32.56 20.9869 33.0267 21.0936 33.52C21.2003 34 21.3069 34.5 21.4136 35.02C21.5336 35.54 21.5936 36.0667 21.5936 36.6C21.5936 37.1067 21.5403 37.5867 21.4336 38.04C21.3269 38.4933 21.1203 38.9133 20.8136 39.3C20.5069 39.6733 20.0803 40.0067 19.5336 40.3C18.9869 40.5933 18.2803 40.84 17.4136 41.04L16.9336 39.42C17.7603 39.2333 18.3669 39 18.7536 38.72C19.1536 38.4267 19.4136 38.1 19.5336 37.74C19.6536 37.38 19.7136 36.9933 19.7136 36.58C19.7136 36.0467 19.6603 35.5333 19.5536 35.04C19.4469 34.5467 19.3336 34.06 19.2136 33.58C19.1069 33.1 19.0536 32.6267 19.0536 32.16C19.0536 31.68 19.1003 31.26 19.1936 30.9C19.2869 30.54 19.4403 30.2 19.6536 29.88C19.8669 29.5467 20.1536 29.1867 20.5136 28.8L20.6536 29.22H17.3336V27.56H23.0136Z" fill="#057A40"/>
</g>
</g>
</g>
</g>
</g>
</g>
</g>
</g>
<g id="Overlay">
<rect width="1512" height="900" transform="translate(-627 -387)" fill="black" fill-opacity="0.5"/>
</g>
<g id="Pop up ">
<g clip-path="url(#clip1_0_1)">
<rect x="-136" y="-251" width="530" height="627" rx="24" fill="white"/>
<g id="content ">
<mask id="path-8-inside-1_0_1" fill="white">
<path d="M-136 -251H394V290H-136V-251Z"/>
</mask>
<path d="M-136 -251H394V290H-136V-251Z" fill="white"/>
<path d="M394 289H-136V291H394V289Z" fill="black" fill-opacity="0.1" mask="url(#path-8-inside-1_0_1)"/>
<g id="action ">
<g id="logo with socail ">
<g id="wrap _4">
<g id="button">
<rect x="-96" y="-16" width="221" height="60" rx="14" fill="white"/>
<rect x="-95.5" y="-15.5" width="220" height="59" rx="13.5" stroke="black" stroke-opacity="0.1"/>
<g id="icon / Google" clip-path="url(#clip2_0_1)">
<g id="Group 61">
<path id="Vector" d="M27.8509 14.315C27.8509 13.3832 27.7754 12.4464 27.6142 11.5298H14.6855V16.808H22.0892C21.782 18.5104 20.7948 20.0163 19.3493 20.9732V24.398H23.7663C26.3601 22.0107 27.8509 18.4852 27.8509 14.315Z" fill="#4285F4"/>
<path id="Vector_2" d="M14.6863 27.7072C18.383 27.7072 21.5006 26.4934 23.7721 24.3983L19.3551 20.9734C18.1262 21.8095 16.5397 22.2829 14.6913 22.2829C11.1154 22.2829 8.08341 19.8705 6.99553 16.627H2.4375V20.1575C4.76436 24.7861 9.5037 27.7072 14.6863 27.7072Z" fill="#34A853"/>
<path id="Vector_3" d="M6.98957 16.6268C6.41541 14.9244 6.41541 13.0811 6.98957 11.3787V7.84814H2.43658C0.492494 11.7212 0.492494 16.2843 2.43658 20.1573L6.98957 16.6268Z" fill="#FBBC04"/>
<path id="Vector_4" d="M14.6863 5.71771C16.6404 5.68749 18.5291 6.42282 19.9444 7.7726L23.8577 3.85924C21.3798 1.53238 18.0909 0.253112 14.6863 0.293404C9.5037 0.293404 4.76436 3.21457 2.4375 7.84814L6.99049 11.3787C8.07334 8.13019 11.1103 5.71771 14.6863 5.71771Z" fill="#EA4335"/>
</g>
</g>
</g>
</g>
</g>
</g>
</g>
</g>
</g>
</g>
</g>
<defs>
<clipPath id="clip0_0_1">
<rect width="1512" height="900" fill="white" transform="translate(-627 -387)"/>
</clipPath>
<clipPath id="clip1_0_1">
<rect x="-136" y="-251" width="530" height="627" rx="24" fill="white"/>
</clipPath>
<clipPath id="clip2_0_1">
<rect width="28" height="28" fill="white" transform="translate(0.5)"/>
</clipPath>
</defs>
</svg>
