<svg width="29" height="28" viewBox="0 0 29 28" fill="none" xmlns="http://www.w3.org/2000/svg">
<g id="icon / Twitter" clip-path="url(#clip0_1_2055)">
<g id="Logo 1">
<path id="white background" d="M25.6127 8.1835C25.6299 8.43066 25.6299 8.67782 25.6299 8.92726C25.6299 16.5277 19.8111 25.2933 9.17136 25.2933V25.2888C6.02834 25.2933 2.9506 24.3981 0.304688 22.7101C0.761709 22.7648 1.22102 22.7921 1.68148 22.7932C4.28616 22.7955 6.81638 21.9265 8.86554 20.3262C6.39029 20.2795 4.21972 18.6747 3.46146 16.3318C4.32854 16.4981 5.22196 16.4639 6.07301 16.2327C3.37441 15.6905 1.43292 13.3328 1.43292 10.5947C1.43292 10.5697 1.43292 10.5458 1.43292 10.5218C2.23701 10.9672 3.1373 11.2143 4.05822 11.2417C1.51654 9.55256 0.733074 6.19028 2.26793 3.56151C5.20478 7.155 9.5379 9.33957 14.1894 9.57079C13.7233 7.57301 14.3601 5.47956 15.8629 4.07519C18.1927 1.89745 21.8569 2.00908 24.0469 4.32463C25.3424 4.07063 26.584 3.59796 27.7202 2.92823C27.2884 4.25971 26.3847 5.39072 25.1774 6.10942C26.324 5.97502 27.4442 5.66977 28.4991 5.20392C27.7225 6.36113 26.7444 7.36913 25.6127 8.1835Z" fill="#1D9BF0"/>
</g>
</g>
<defs>
<clipPath id="clip0_1_2055">
<rect width="28" height="28" fill="white" transform="translate(0.5)"/>
</clipPath>
</defs>
</svg>
